<?xml version="1.0" encoding="UTF-8"?>
<svg version="1.1" xmlns="http://www.w3.org/2000/svg" width="500" height="500">
<path d="M0 0 C1.32 0 2.64 0 4 0 C7.50092246 7.14188182 7.19191142 13.20843089 6 21 C5.67 21.66 5.34 22.32 5 23 C4.65855931 24.89083541 4.35090332 26.78785166 4.0625 28.6875 C3.32989111 33.26492849 2.40430764 37.58646169 1 42 C1.52207031 41.38253906 2.04414063 40.76507813 2.58203125 40.12890625 C13.39779821 27.68414462 28.31547022 14.39572962 45 11 C47.8125 11.41015625 47.8125 11.41015625 50 12 C49.82756405 20.10448979 45.22410851 24.8343185 39.62890625 30.328125 C26.66607006 42.21915102 26.66607006 42.21915102 20.8046875 45.06640625 C18.82043753 45.86834306 18.82043753 45.86834306 18 48 C18.9075 47.773125 19.815 47.54625 20.75 47.3125 C27.22474878 46.3572092 34.62823887 48.41882592 40 52 C40.5 54.375 40.5 54.375 40 57 C34.21184309 63.14991671 25.56348641 64.50575624 17.5625 65.6875 C16.76779297 65.81705078 15.97308594 65.94660156 15.15429688 66.08007812 C7.43466125 67.2672312 0.38771733 67.51524252 -7.25 65.6875 C-10.23721339 65.05800479 -10.23721339 65.05800479 -13 65 C-16.25781741 67.08561 -16.25781741 67.08561 -18 70 C-18.33 70.33 -18.66 70.66 -19 71 C-18.39921631 70.93143799 -17.79843262 70.86287598 -17.17944336 70.79223633 C11.4213578 67.70585869 11.4213578 67.70585869 23 74 C23.96486328 74.52013672 23.96486328 74.52013672 24.94921875 75.05078125 C27.87161261 76.81511693 28.89719759 77.69159276 30 81 C22.83025563 87.21377846 16.96666159 87.69915118 7.58496094 87.24414062 C-2.16288302 86.32349046 -12.22984693 83.92552383 -21.51171875 80.828125 C-24.51213954 79.82955482 -26.04887036 79.88335635 -29 81 C-30.82337753 82.9568288 -30.82337753 82.9568288 -32 85 C-31.46890625 84.84015625 -30.9378125 84.6803125 -30.390625 84.515625 C-17.23651004 81.67846295 0.21377232 84.75279348 12 91 C14 93 14 93 14.3125 95.4375 C14 98 14 98 12.9609375 99.5859375 C10.01684447 101.70896873 6.8274594 101.82976837 3.3125 102.1875 C2.61060547 102.26935547 1.90871094 102.35121094 1.18554688 102.43554688 C-0.54166726 102.63529273 -2.27070003 102.81919988 -4 103 C-4.18175781 103.59167969 -4.36351562 104.18335938 -4.55078125 104.79296875 C-4.80214844 105.58316406 -5.05351562 106.37335938 -5.3125 107.1875 C-5.55613281 107.96480469 -5.79976563 108.74210937 -6.05078125 109.54296875 C-7.09388725 112.24302502 -8.45242506 114.55942663 -10 117 C-9.16597656 116.45730469 -8.33195312 115.91460937 -7.47265625 115.35546875 C8.28386547 105.26969878 8.28386547 105.26969878 14.24609375 106.44140625 C14.82488281 106.62574219 15.40367187 106.81007813 16 107 C17.3399578 110.04535865 16.92663206 111.21238087 15.8125 114.4375 C9.16845657 127.49648191 -4.75591459 134.0683136 -17 141 C-15.66634524 140.7098066 -14.33309785 140.41774108 -13 140.125 C-11.75718262 139.85369263 -11.75718262 139.85369263 -10.48925781 139.5769043 C-8.3663378 139.08490155 -6.26551416 138.49912297 -4.171875 137.89453125 C1.08076469 136.57098035 6.36179174 136.65842011 11.75 136.6875 C12.81677979 136.69241455 13.88355957 136.6973291 14.98266602 136.70239258 C26.68231698 136.87682732 38.00326819 138.54366617 46.921875 146.7734375 C49.93930401 150.05385344 49.93930401 150.05385344 51 152 C50.67 152.99 50.34 153.98 50 155 C43.92729642 157.9397406 38.68108385 158.48240102 32 158.375 C31.08154297 158.36484863 30.16308594 158.35469727 29.21679688 158.34423828 C15.6364052 158.03988273 4.07481639 155.38890114 -8 149 C-5.54166424 151.475864 -3.07376389 153.93044451 -0.53515625 156.32421875 C12.73463996 169.00704135 12.73463996 169.00704135 13.1484375 176.79296875 C13.09945313 177.52128906 13.05046875 178.24960938 13 179 C6.72436907 181.03533976 1.70210751 178.63817508 -4 176 C-14.54352328 170.31707032 -25.17834345 161.9813809 -32 152 C-32.9375 148.5 -32.9375 148.5 -33 146 C-34.45880109 146.14107747 -35.91703551 146.28802415 -37.375 146.4375 C-38.18710937 146.51871094 -38.99921875 146.59992188 -39.8359375 146.68359375 C-42.04272805 146.89090114 -42.04272805 146.89090114 -44 148 C-43.10539063 148.54527344 -42.21078125 149.09054688 -41.2890625 149.65234375 C-28.1829736 157.76658944 -16.1192193 166.74078862 -11 182 C-11 183.32 -11 184.64 -11 186 C-14.54612396 186.91141148 -16.44936665 187.22502202 -19.88671875 185.8203125 C-21.27310547 184.98113281 -21.27310547 184.98113281 -22.6875 184.125 C-25.50311757 182.450428 -27.88708529 181.03763824 -31 180 C-30.71125 180.49628906 -30.4225 180.99257812 -30.125 181.50390625 C-27.498477 186.31007855 -26.54447737 189.5337284 -27 195 C-30.01114099 196.33657789 -31.26442393 195.91483644 -34.46875 194.8828125 C-35.82001034 194.31440921 -37.16350649 193.7273055 -38.5 193.125 C-39.56250977 192.65006104 -39.56250977 192.65006104 -40.64648438 192.16552734 C-53.46658935 186.19186707 -64.78182931 177.35357673 -70 163.9375 C-70.6867937 161.96522731 -71.36082139 159.98821423 -72 158 C-76.76842682 159.33800633 -80.17425847 161.27936571 -84.125 164.25 C-85.13820313 164.99765625 -86.15140625 165.7453125 -87.1953125 166.515625 C-91.95921619 170.73546169 -94.41189157 175.52972893 -96.75 181.375 C-97.17796875 182.43460938 -97.6059375 183.49421875 -98.046875 184.5859375 C-98.36140625 185.38257813 -98.6759375 186.17921875 -99 187 C-98.59910156 186.61328125 -98.19820312 186.2265625 -97.78515625 185.828125 C-90.21799438 178.89584973 -82.3383585 175.79259466 -72 176 C-68.3125 176.9375 -68.3125 176.9375 -66 178 C-66.13311409 183.32456343 -68.17494847 186.20506585 -71.6953125 189.9375 C-77.81024535 195.40984668 -84.92163377 199.14797492 -92.40625 202.375 C-93.34903809 202.79023926 -94.29182617 203.20547852 -95.26318359 203.63330078 C-97.13733057 204.44646505 -99.02579472 205.22756675 -100.92822266 205.97216797 C-106.06347014 208.16934401 -106.06347014 208.16934401 -109.28027344 212.54785156 C-110.03030683 215.03250126 -110.60530825 217.43668595 -111 220 C-110.50113281 219.443125 -110.00226563 218.88625 -109.48828125 218.3125 C-100.4754126 208.7332931 -86.41599839 198.41164189 -73.03125 196.59765625 C-66.96165966 196.51917017 -66.96165966 196.51917017 -64 198 C-64.63391084 206.11003396 -68.45902797 210.33705688 -74 216 C-76.49590888 218.06828812 -78.90598751 219.96645407 -82 221 C-83.34277008 220.70698566 -84.67781129 220.37510786 -86 220 C-88.70465742 220.86454438 -88.70465742 220.86454438 -91 222 C-91 222.99 -91 223.98 -91 225 C-93.34847458 226.01555658 -95.70231851 227.01232745 -98.0625 228 C-98.71927734 228.28617188 -99.37605469 228.57234375 -100.05273438 228.8671875 C-104.5176249 230.71472841 -108.08684831 231.39256143 -113 231 C-113.66 230.67 -114.32 230.34 -115 230 C-115.99 237.425 -115.99 237.425 -117 245 C-115.88625 243.824375 -114.7725 242.64875 -113.625 241.4375 C-102.45995692 230.33132358 -89.19069754 223.41324398 -73.3125 222.875 C-72.549375 222.91625 -71.78625 222.9575 -71 223 C-70.25 225.125 -70.25 225.125 -70 228 C-75.70926915 239.67805053 -89.95764157 248.09406989 -101.8059082 252.18212891 C-104.85602256 253.17112743 -107.92579051 254.08912311 -111 255 C-112.81512719 255.59622721 -114.62814871 256.19896801 -116.4375 256.8125 C-117.613125 257.204375 -118.78875 257.59625 -120 258 C-120.33 262.62 -120.66 267.24 -121 272 C-119.453125 270.3603125 -119.453125 270.3603125 -117.875 268.6875 C-107.24098159 258.10984565 -94.41920728 246.87774974 -78.86328125 245.91015625 C-77 246 -77 246 -76 247 C-76 253.36876567 -77.53179887 256.51483968 -81.94140625 261.06640625 C-92.88719361 271.34755377 -106.38784386 277.00142272 -120 283 C-120.36517527 289.57315478 -119.13619737 294.79485526 -117 301 C-113.70559739 297.80213666 -110.66289066 294.49568982 -107.70141602 290.98876953 C-80.91123454 259.31519892 -80.91123454 259.31519892 -66.28125 256.2109375 C-63 256 -63 256 -60 257 C-59.00525226 259.28294606 -58.91372948 260.62256648 -59.46875 263.05078125 C-68.00031155 281.76204693 -87.98030059 292.82920855 -105.171875 302.40625 C-108.07334186 303.99490358 -108.07334186 303.99490358 -111 306 C-110.47792969 306.55945313 -109.95585937 307.11890625 -109.41796875 307.6953125 C-92.0483848 326.61629536 -71.56791891 353.34537846 -70 380 C-70.99 380 -71.98 380 -73 380 C-73.31638428 379.21052979 -73.63276855 378.42105957 -73.95874023 377.60766602 C-85.97099083 346.7867496 -85.97099083 346.7867496 -105 320 C-105.99 319.67 -106.98 319.34 -108 319 C-110.19068453 320.46844525 -110.19068453 320.46844525 -112.625 322.625 C-126.46663907 333.71810431 -149.66160286 347.83383971 -168 346 C-168.66 345.67 -169.32 345.34 -170 345 C-169.22599318 339.16439595 -166.19809155 335.93294892 -162 332 C-159.0625 330.5 -159.0625 330.5 -157 330 C-158.56069006 333.83078469 -161.06814114 336.14143762 -164 339 C-164.66 339.99 -165.32 340.98 -166 342 C-165.34 342 -164.68 342 -164 342 C-162.6510255 340.44371556 -161.36935411 338.82863873 -160.125 337.1875 C-156.41707371 332.30234236 -156.41707371 332.30234236 -153.7421875 330.36328125 C-152.87980469 329.68845703 -152.87980469 329.68845703 -152 329 C-152 328.01 -152 327.02 -152 326 C-149.1490588 324.39005142 -146.29368635 322.78812197 -143.4375 321.1875 C-142.63763672 320.73568359 -141.83777344 320.28386719 -141.01367188 319.81835938 C-134.1238345 315.9656748 -128.00022851 312.87631928 -120.0625 311.8125 C-118.34740234 311.57466797 -118.34740234 311.57466797 -116.59765625 311.33203125 C-115.74042969 311.22246094 -114.88320312 311.11289062 -114 311 C-114.969375 310.21625 -115.93875 309.4325 -116.9375 308.625 C-118.83962346 307.08711295 -119.89629957 306.20740087 -121 304 C-125.94464458 304.5405402 -129.77181005 306.17931711 -134.0859375 308.52734375 C-134.74655182 308.87632217 -135.40716614 309.2253006 -136.08779907 309.58485413 C-138.89244567 311.06670841 -141.68654656 312.56797892 -144.48144531 314.06811523 C-146.53341249 315.16580735 -148.59071388 316.25299146 -150.6484375 317.33984375 C-151.26641205 317.67636459 -151.8843866 318.01288544 -152.52108765 318.35960388 C-159.4841393 322.03375332 -166.1526271 323.26513166 -174 323.125 C-174.67933594 323.11597656 -175.35867187 323.10695313 -176.05859375 323.09765625 C-177.70588741 323.07445493 -179.35299526 323.03860167 -181 323 C-181.29594234 317.58197866 -181.29594234 317.58197866 -180.06640625 315.1640625 C-167.92468984 302.73851376 -147.71860583 298.21589861 -131 297 C-134.8092957 293.76787032 -138.49073024 291.1316548 -143 289 C-146.59897403 290.20706331 -149.21239909 292.74875386 -152.0625 295.1875 C-157.44717941 299.64255348 -162.93941273 303.52061249 -169 307 C-169.80308594 307.46277344 -170.60617188 307.92554688 -171.43359375 308.40234375 C-180.98776622 313.30612338 -193.25238616 316 -204 316 C-203.58221009 310.2902045 -201.42453429 307.39042858 -198 303 C-203.93030922 304.16732776 -203.93030922 304.16732776 -209.625 306.125 C-212.83205137 307.30654524 -215.6124076 307.19175051 -219 307 C-219.66 306.67 -220.32 306.34 -221 306 C-221.60848309 299.91516913 -221.60848309 299.91516913 -219.87573242 297.30908203 C-218.58382161 295.87272135 -217.29191081 294.43636068 -216 293 C-217.2065625 293.28875 -218.413125 293.5775 -219.65625 293.875 C-221.27072651 294.25045965 -222.88531597 294.6254338 -224.5 295 C-225.29148438 295.19078125 -226.08296875 295.3815625 -226.8984375 295.578125 C-232.05783047 296.76224798 -236.70374874 297.28628385 -242 297 C-243 296 -243 296 -243.0625 292.875 C-242.30161387 287.62488568 -238.00928473 285.00468036 -234 282 C-235.29035156 282.2165625 -236.58070313 282.433125 -237.91015625 282.65625 C-239.62755648 282.93779102 -241.34500711 283.21902475 -243.0625 283.5 C-243.91005859 283.64308594 -244.75761719 283.78617187 -245.63085938 283.93359375 C-253.65844797 285.23536487 -259.61850448 285.61542638 -267 282 C-267.3125 279.75 -267.3125 279.75 -267 277 C-262.94164159 272.96599174 -258.19442745 271.2599816 -252.9375 269.3125 C-252.13505859 269.00505859 -251.33261719 268.69761719 -250.50585938 268.38085938 C-247.0263308 267.06123733 -243.62783502 265.84830986 -240 265 C-240.85980469 264.97421875 -241.71960938 264.9484375 -242.60546875 264.921875 C-257.36377163 264.21373397 -272.74709453 260.1176566 -284 250 C-284.8125 247.25 -284.8125 247.25 -285 245 C-275.76943552 240.78004445 -265.04114928 243.17568285 -255.375 244.8125 C-254.32054687 244.97814453 -253.26609375 245.14378906 -252.1796875 245.31445312 C-245.60259861 246.39299802 -239.32815418 247.90795349 -233 250 C-233.94101563 249.09378906 -234.88203125 248.18757812 -235.8515625 247.25390625 C-253.78004244 229.79830227 -253.78004244 229.79830227 -254 221 C-253.67 220.67 -253.34 220.34 -253 220 C-240.49716631 220 -231.14825626 228.28015568 -222 236 C-221.40960938 236.44472656 -220.81921875 236.88945312 -220.2109375 237.34765625 C-214.72136028 241.60142817 -210.73953505 247.18226501 -206.55078125 252.66015625 C-206.11588379 253.22492676 -205.68098633 253.78969727 -205.23291016 254.37158203 C-204.09824761 255.87023534 -203.00590618 257.40068378 -201.91796875 258.93359375 C-201.28503906 259.61550781 -200.65210938 260.29742187 -200 261 C-198.68 261 -197.36 261 -196 261 C-196.87011719 260.12601562 -196.87011719 260.12601562 -197.7578125 259.234375 C-208.01506734 248.46933527 -214.11654328 235.77762941 -214.1875 220.6875 C-214.125625 219.470625 -214.06375 218.25375 -214 217 C-211.875 216.25 -211.875 216.25 -209 216 C-194.53309177 224.10934175 -185.47843038 243.83112291 -181 259 C-180.7091168 260.72590701 -180.43502245 262.45484288 -180.1875 264.1875 C-179.44932066 267.99936455 -179.44932066 267.99936455 -177.10546875 269.2109375 C-174.64099564 270.20592816 -174.64099564 270.20592816 -171 271 C-171.60328125 270.10539062 -172.2065625 269.21078125 -172.828125 268.2890625 C-179.2267327 258.67378521 -183.56381639 250.02191183 -185.8125 238.625 C-185.94897949 237.93422363 -186.08545898 237.24344727 -186.22607422 236.53173828 C-186.8399191 233.0953858 -187.24949196 230.31497867 -186 227 C-180.0245659 227.87722262 -176.94895137 230.5473931 -173 235 C-164.46515695 247.07368041 -158.47921583 262.14430938 -158 277 C-154.08936776 278.47047336 -154.08936776 278.47047336 -150 279 C-150.39832031 278.35675781 -150.79664063 277.71351563 -151.20703125 277.05078125 C-156.96835115 267.22429646 -160.303456 256.49605456 -159 245 C-158 241.875 -158 241.875 -157 240 C-153.49136162 240.2694133 -152.12959746 240.88072983 -149.5 243.30078125 C-140.15808105 254.55487424 -133.38992918 267.98572929 -134.1875 283 C-134.34966739 285.64636848 -134.34966739 285.64636848 -134 288 C-131.03265949 290.76951781 -128.80537684 291.73154105 -125 293 C-125.16081055 292.278125 -125.32162109 291.55625 -125.48730469 290.8125 C-128.60291903 273.72112987 -125.52909386 254.82315619 -122 238 C-122.64710938 238.15726563 -123.29421875 238.31453125 -123.9609375 238.4765625 C-134.72655421 240.33079468 -145.72710782 239.54250542 -156.25 236.8125 C-157.0229541 236.61640137 -157.7959082 236.42030273 -158.59228516 236.21826172 C-164.82995137 234.44327175 -169.94321052 231.72026996 -173.9375 226.4375 C-175 224 -175 224 -175 220 C-173.79731319 219.34371151 -172.58747446 218.70052495 -171.375 218.0625 C-170.70210938 217.70285156 -170.02921875 217.34320313 -169.3359375 216.97265625 C-159.98092666 213.07734237 -150.98607628 217.07278373 -142.140625 220.69921875 C-139.83982393 221.68621012 -137.54294446 222.68239143 -135.25 223.6875 C-133.47109375 224.45416992 -133.47109375 224.45416992 -131.65625 225.23632812 C-128.76721445 226.48280717 -125.88203049 227.73742973 -123 229 C-123.2165625 228.10796875 -123.433125 227.2159375 -123.65625 226.296875 C-124.07390625 224.54117188 -124.07390625 224.54117188 -124.5 222.75 C-124.91765625 221.00976562 -124.91765625 221.00976562 -125.34375 219.234375 C-126 216 -126 216 -126 212 C-126.77601563 212.144375 -127.55203125 212.28875 -128.3515625 212.4375 C-136.65311092 213.86401906 -144.58824979 214.29514913 -153 214 C-153.94746094 213.98195313 -154.89492187 213.96390625 -155.87109375 213.9453125 C-165.50409229 213.46995408 -174.6712817 210.34164 -182 204 C-181.8125 201.625 -181.8125 201.625 -181 199 C-175.42903258 196.08819965 -169.56531371 196.67023855 -163.4375 196.6875 C-162.32052734 196.67138672 -161.20355469 196.65527344 -160.05273438 196.63867188 C-149.02612854 196.63227964 -139.3305092 199.38432178 -129 203 C-129.433125 201.55367188 -129.433125 201.55367188 -129.875 200.078125 C-130.24625 198.81484375 -130.6175 197.5515625 -131 196.25 C-131.556875 194.37054688 -131.556875 194.37054688 -132.125 192.453125 C-133 189 -133 189 -133 185 C-134.52367187 185.72316406 -134.52367187 185.72316406 -136.078125 186.4609375 C-144.29745608 190.27307751 -151.85516014 193.3747118 -161 194 C-161.99265869 194.07154297 -161.99265869 194.07154297 -163.00537109 194.14453125 C-173.88451048 194.83230705 -182.09979054 194.19780357 -190.625 186.6875 C-191.07875 186.130625 -191.5325 185.57375 -192 185 C-190.59335278 181.60060256 -189.16905621 179.88430369 -186 178 C-180.34016021 176.00176805 -175.3178799 175.73308491 -169.34765625 175.8046875 C-168.44752304 175.8075174 -167.54738983 175.81034729 -166.61997986 175.81326294 C-163.7673468 175.82438722 -160.91503689 175.84947717 -158.0625 175.875 C-156.11914518 175.88503983 -154.17578541 175.89416392 -152.23242188 175.90234375 C-147.48815824 175.92430112 -142.74413376 175.95877699 -138 176 C-138.45082469 174.53932801 -138.91093537 173.08151968 -139.375 171.625 C-139.63023437 170.81289062 -139.88546875 170.00078125 -140.1484375 169.1640625 C-140.89854283 166.83540815 -140.89854283 166.83540815 -143 165 C-143.825 165.763125 -144.65 166.52625 -145.5 167.3125 C-149.06392326 170.26023092 -152.58311269 171.72666312 -157 173 C-157.70511719 173.20625 -158.41023438 173.4125 -159.13671875 173.625 C-169.11324625 176.06408312 -182.05351721 177.18898291 -191.328125 172.15625 C-193.49990133 170.65427385 -195.32353109 169.04091868 -197 167 C-195.375 161.25 -195.375 161.25 -192 159 C-182.38648615 156.9171275 -172.54894325 156.61620476 -162.75 156.375 C-161.44675781 156.33632812 -160.14351563 156.29765625 -158.80078125 156.2578125 C-149.95228795 156 -149.95228795 156 -147 156 C-148.98 152.37 -150.96 148.74 -153 145 C-157.3885026 146.38969249 -161.54504313 148.06810176 -165.75 149.9375 C-176.60601667 154.61179588 -186.0522803 157.3540749 -198 156 C-202.04396203 154.29528533 -204.90544832 152.95637539 -207 149 C-207.1875 146.25 -207.1875 146.25 -207 144 C-202.28911118 141.38860966 -197.90070938 140.08150584 -192.6875 139 C-191.91003418 138.83266357 -191.13256836 138.66532715 -190.33154297 138.49291992 C-183.40998102 137.02807232 -176.45242805 135.78794945 -169.4765625 134.61328125 C-166.93792574 134.16545432 -164.48227686 133.68103493 -162 133 C-163.32 131.02 -164.64 129.04 -166 127 C-167.58367747 127.14204741 -169.16693318 127.28880153 -170.75 127.4375 C-172.07257813 127.55931641 -172.07257813 127.55931641 -173.421875 127.68359375 C-175.91199387 127.92773712 -175.91199387 127.92773712 -177.92578125 128.51953125 C-188.67453684 131.00935599 -202.25830352 129.1799656 -211.6875 123.4375 C-213.69388313 122.05838012 -215.26922397 120.73077603 -217 119 C-217.67874794 112.89126853 -217.67874794 112.89126853 -215.390625 109.88671875 C-209.50255552 105.23976195 -200.39646928 104.58535307 -193.125 105.3125 C-191.74635855 105.51863128 -190.3691533 105.73815732 -189 106 C-189.54527344 105.45214844 -190.09054688 104.90429688 -190.65234375 104.33984375 C-195.45172961 99.29433554 -199.36471195 94.2125093 -202.9375 88.25 C-203.31447021 87.62472412 -203.69144043 86.99944824 -204.07983398 86.35522461 C-207.04093903 81.27625204 -209.81261116 76.01332256 -209 70 C-207.8125 68.1875 -207.8125 68.1875 -206 67 C-202.71032095 66.39400649 -201.40963107 66.71854819 -198.640625 68.62109375 C-195.66517101 71.30164327 -193.39470874 74.22971527 -191.125 77.5 C-190.69590332 78.10859863 -190.26680664 78.71719727 -189.82470703 79.34423828 C-185.867861 85.03377258 -182.35456807 90.93511866 -179 97 C-178.98541748 96.43079834 -178.97083496 95.86159668 -178.95581055 95.27514648 C-178.88070835 92.66196172 -178.78425811 90.04996901 -178.6875 87.4375 C-178.66494141 86.54224609 -178.64238281 85.64699219 -178.61914062 84.72460938 C-178.39287992 79.10922997 -177.56515233 75.01339423 -175 70 C-172.6640625 70.203125 -172.6640625 70.203125 -170 71 C-161.21289118 83.18107148 -160.54304368 101.79747936 -161.08740234 116.33398438 C-161.27573426 121.72598421 -160.46149867 125.1795651 -158 130 C-158.04640625 128.99066406 -158.0928125 127.98132813 -158.140625 126.94140625 C-158.4336195 117.33254425 -157.67988245 108.12480048 -156.1875 98.625 C-156.02217773 97.53775635 -155.85685547 96.4505127 -155.68652344 95.33032227 C-155.51540039 94.30608154 -155.34427734 93.28184082 -155.16796875 92.2265625 C-155.01610107 91.31471191 -154.8642334 90.40286133 -154.70776367 89.46337891 C-153.93118656 86.7604941 -152.81282398 85.12576486 -151 83 C-148.6875 83.125 -148.6875 83.125 -146 84 C-139.80294403 93.29558395 -140.71007365 109.19864117 -142.47900391 119.89697266 C-143.43767224 124.51332939 -144.58530696 129.06848556 -145.80859375 133.62109375 C-146.01597168 134.39308105 -146.22334961 135.16506836 -146.43701172 135.96044922 C-146.88285371 137.57561141 -147.35979552 139.18218529 -147.84765625 140.78515625 C-148.06237951 143.90690214 -146.77665307 145.5126857 -145 148 C-144.87044922 146.13021484 -144.87044922 146.13021484 -144.73828125 144.22265625 C-144.04840671 135.46781985 -143.09406554 127.01296377 -140.625 118.5625 C-140.42817627 117.8722876 -140.23135254 117.1820752 -140.02856445 116.47094727 C-138.71271293 112.25886316 -136.95578658 109.26394305 -134 106 C-131.64277539 106.94483796 -130.28163577 107.53130764 -128.953125 109.7421875 C-123.5864691 126.02104374 -129.4004895 143.22147708 -136.27734375 158.23828125 C-137.20072151 161.76708167 -136.40856615 163.70034849 -135 167 C-134.85304687 166.16339844 -134.70609375 165.32679688 -134.5546875 164.46484375 C-132.16934528 152.08574015 -128.18298321 140.96592454 -121.4375 130.3125 C-121.07382324 129.73628906 -120.71014648 129.16007813 -120.33544922 128.56640625 C-117.98734112 125.03003547 -115.58650901 122.29606331 -112 120 C-111.01 120.33 -110.02 120.66 -109 121 C-105.12571322 132.62286035 -111.59265071 150.34149436 -116.40234375 161.08984375 C-118.84228346 165.53423271 -121.66171874 169.71658616 -124.61010742 173.83935547 C-126.95337089 177.15700552 -128.85616285 179.86468205 -129 184 C-128.34 184.99 -127.68 185.98 -127 187 C-126.64808594 186.03320312 -126.29617187 185.06640625 -125.93359375 184.0703125 C-122.00593253 173.58935325 -116.80665439 161.33203558 -107 155 C-104.91796875 155.07421875 -104.91796875 155.07421875 -103 156 C-100.3934784 159.69931792 -100.91674529 162.8164264 -101.46875 167.11328125 C-104.02023113 180.97757947 -109.72912652 195.74873563 -118.6171875 206.7890625 C-120.74339443 210.18859109 -121.23528234 213.38277195 -120.66015625 217.3359375 C-120.46292969 218.00882813 -120.26570312 218.68171875 -120.0625 219.375 C-119.711875 220.57125 -119.36125 221.7675 -119 223 C-117.08944718 220.13417077 -116.29989103 218.0804126 -115.328125 214.8203125 C-111.35966251 201.97772357 -106.8691098 189.86184888 -100.9375 177.8125 C-100.63662476 177.20054779 -100.33574951 176.58859558 -100.02575684 175.95809937 C-97.17589257 170.18586621 -94.25052927 164.45509578 -91.25390625 158.7578125 C-90.86533447 158.01039795 -90.4767627 157.2629834 -90.07641602 156.49291992 C-89.38601896 155.17460448 -88.68067799 153.86394595 -87.95678711 152.5637207 C-86.93487993 150.71918444 -86.93487993 150.71918444 -86 148 C-87.27127842 144.77313552 -89.26621103 141.94242374 -91.15234375 139.04296875 C-91.76400391 138.09486328 -92.37566406 137.14675781 -93.00585938 136.16992188 C-94.28711955 134.19167689 -95.57094951 132.21509379 -96.85742188 130.24023438 C-102.92602706 120.81507153 -106.20386733 113.55125849 -106.0625 102.1875 C-106.05798828 101.49462891 -106.05347656 100.80175781 -106.04882812 100.08789062 C-106.03713156 98.39188932 -106.01919924 96.69593297 -106 95 C-103.8125 94.1875 -103.8125 94.1875 -101 94 C-96.22326788 97.64301405 -93.4584976 102.72532808 -90.5 107.875 C-90.01877686 108.709104 -89.53755371 109.54320801 -89.04174805 110.40258789 C-84.48733867 118.52744364 -80 127.52071491 -80 137 C-76.26769451 133.65427477 -76.26769451 133.65427477 -75 129 C-76.23576667 126.73304348 -76.23576667 126.73304348 -78.1015625 124.4921875 C-82.14119138 119.02373807 -84.77392079 113.38055498 -87.375 107.125 C-87.81199219 106.10664063 -88.24898437 105.08828125 -88.69921875 104.0390625 C-95.12505022 88.91945904 -94.44279345 72.73489346 -90 57 C-87.68359375 57.19140625 -87.68359375 57.19140625 -85 58 C-73.29482509 73.38640928 -69.21771016 99.32454606 -67 118 C-64.333492 115.83411155 -64.333492 115.83411155 -62 113 C-62.00806434 107.95172247 -65.211595 103.49119958 -67.52734375 99.1328125 C-73.65223241 86.1032085 -73.30341214 69.76571214 -68.75 56.3046875 C-67.55975283 53.17352591 -66.32002296 50.07837416 -65 47 C-62.6875 47.0625 -62.6875 47.0625 -60 48 C-56.77855927 53.47203631 -56.14980325 59.27516025 -55.375 65.5 C-55.25382813 66.41136719 -55.13265625 67.32273437 -55.0078125 68.26171875 C-54.77153202 70.04152715 -54.54050096 71.82204175 -54.31518555 73.60327148 C-54.05310268 75.59619751 -53.74172798 77.58256615 -53.41796875 79.56640625 C-52.89318865 83.87745025 -52.89206617 88.10031672 -52.9375 92.4375 C-52.94201172 93.26443359 -52.94652344 94.09136719 -52.95117188 94.94335938 C-52.96284189 96.96227146 -52.98077282 98.98114574 -53 101 C-51.79745476 99.76446724 -50.61333768 98.51097661 -49.4375 97.25 C-48.77621094 96.55390625 -48.11492187 95.8578125 -47.43359375 95.140625 C-45.77735802 93.15036243 -45.77735802 93.15036243 -46.171875 91.00390625 C-46.58179688 90.01197266 -46.58179688 90.01197266 -47 89 C-47.27457031 88.32324219 -47.54914063 87.64648438 -47.83203125 86.94921875 C-48.15558594 86.20285156 -48.47914063 85.45648438 -48.8125 84.6875 C-55.38849766 68.28363771 -57.65600192 52.57991607 -51.12109375 35.734375 C-50.1875 33.8125 -50.1875 33.8125 -48 31 C-44.75 30.0625 -44.75 30.0625 -42 30 C-31.82581458 42.63002328 -33.23832383 62.84351766 -34.78125 78.015625 C-34.8534375 78.67046875 -34.925625 79.3253125 -35 80 C-31.64738917 76.57450633 -30.5278481 74.2089341 -30.546875 69.38085938 C-30.58554687 68.35702148 -30.58554687 68.35702148 -30.625 67.3125 C-30.63789063 66.59771484 -30.65078125 65.88292969 -30.6640625 65.14648438 C-30.7746536 61.32763531 -31.12641925 57.71588331 -32 54 C-35.21845729 39.82458886 -32.94729691 25.79554786 -25.40625 13.375 C-23.875 11.4375 -23.875 11.4375 -21 9 C-19.68 9 -18.36 9 -17 9 C-8.81540166 22.09535734 -15.5998696 44.13599379 -18.66796875 58.0546875 C-19.11216637 60.32825544 -19.11216637 60.32825544 -19 64 C-14.62929985 59.52568129 -13.26356023 56.46889424 -13.21484375 50.14453125 C-13.17309776 49.03110603 -13.17309776 49.03110603 -13.13050842 47.89518738 C-13.04367157 45.53436765 -12.98753645 43.17436556 -12.9375 40.8125 C-12.64738189 28.57306322 -12.36543707 17.35327427 -4.875 7 C-4.37742187 6.29875 -3.87984375 5.5975 -3.3671875 4.875 C-2.91601562 4.25625 -2.46484375 3.6375 -2 3 C-1.34 2.01 -0.68 1.02 0 0 Z M0 6 C-3.60038334 10.53648301 -5.28596359 15.06350683 -6.75 20.625 C-6.9668042 21.43880127 -7.1836084 22.25260254 -7.40698242 23.09106445 C-9.65305075 32.36438315 -9.44919052 41.52707101 -9 51 C0.02156885 40.40490169 2.87216792 19.43784649 2 6 C1.34 6 0.68 6 0 6 Z M-22 16 C-25.41043739 19.49317038 -26.04817433 23.60113044 -26.8125 28.25 C-27.00912231 29.43360107 -27.00912231 29.43360107 -27.2097168 30.64111328 C-28.4761086 39.41733992 -28.6335888 50.15247513 -24 58 C-17.33143574 37.92285673 -17.33143574 37.92285673 -19.4375 17.9375 C-19.953125 17.298125 -20.46875 16.65875 -21 16 C-21.33 16 -21.66 16 -22 16 Z M12.3046875 34.6796875 C8.82923788 38.17869949 5.86211169 41.9911482 3 46 C4.91504289 47.24445837 4.91504289 47.24445837 6.7421875 46.46875 C21.98836594 39.54374587 34.16073488 30.77671831 45 18 C44.505 16.515 44.505 16.515 44 15 C32.59150215 15 20.08218971 27.54823979 12.3046875 34.6796875 Z M-30 32 C-30 33.65 -30 35.3 -30 37 C-29.67 37 -29.34 37 -29 37 C-29 35.35 -29 33.7 -29 32 C-29.33 32 -29.66 32 -30 32 Z M-48 37 C-49.54774772 39.84837606 -50.473782 42.45160435 -51.125 45.625 C-51.29257812 46.40101562 -51.46015625 47.17703125 -51.6328125 47.9765625 C-52.66835382 56.5032538 -51.66971448 63.6831054 -49.1875 71.875 C-48.92646484 72.79796875 -48.66542969 73.7209375 -48.39648438 74.671875 C-47.11937347 79.02351217 -46.07228538 82.55333365 -43 86 C-42.34 86 -41.68 86 -41 86 C-38.18583028 78.36947603 -37.53743914 71.46951508 -37.625 63.375 C-37.61339844 62.29476562 -37.60179687 61.21453125 -37.58984375 60.1015625 C-37.62249898 51.17579994 -39.33891731 44.07635336 -45 37 C-45.99 37 -46.98 37 -48 37 Z M-31 37 C-31 39.31 -31 41.62 -31 44 C-30.67 44 -30.34 44 -30 44 C-30 41.69 -30 39.38 -30 37 C-30.33 37 -30.66 37 -31 37 Z M10.64453125 45.43359375 C9.3619696 46.09148807 8.08475943 46.75989743 6.8125 47.4375 C6.15830078 47.77587891 5.50410156 48.11425781 4.83007812 48.46289062 C3.21540701 49.29969098 1.60707237 50.14869746 0 51 C3.09227424 52.39938193 3.09227424 52.39938193 6.35546875 50.56640625 C7.6380304 49.90851193 8.91524057 49.24010257 10.1875 48.5625 C10.84169922 48.22412109 11.49589844 47.88574219 12.16992188 47.53710938 C13.78459299 46.70030902 15.39292763 45.85130254 17 45 C13.90772576 43.60061807 13.90772576 43.60061807 10.64453125 45.43359375 Z M-63 53 C-68.14131587 58.58838681 -68.38961743 65.39221173 -68.25390625 72.62109375 C-67.50916328 82.531904 -65.38675876 93.01336059 -61 102 C-60.34 102.33 -59.68 102.66 -59 103 C-57.35542327 97.22760119 -56.64624617 92.05493123 -56.6875 86.0625 C-56.69023926 85.24563721 -56.69297852 84.42877441 -56.69580078 83.5871582 C-56.87057726 73.16786861 -58.49390686 62.83230468 -62 53 C-62.33 53 -62.66 53 -63 53 Z M-8 61 C-4.69815241 64.30184759 -0.8331489 63.96999252 3.6875 64.1328125 C8.0892416 64.10755578 12.11676192 63.30883149 16.375 62.25 C17.11161865 62.07243164 17.8482373 61.89486328 18.60717773 61.71191406 C24.2832062 60.29430836 29.68175755 58.45658373 35 56 C34.505 55.01 34.505 55.01 34 54 C19.10575329 52.5839376 4.91715083 52.14352531 -8 61 Z M-88 62 C-87.67 62.99 -87.34 63.98 -87 65 C-87 64.01 -87 63.02 -87 62 C-87.33 62 -87.66 62 -88 62 Z M-87 70 C-90.91124534 90.51800832 -84.3673435 105.60816014 -74 123 C-73.67 123 -73.34 123 -73 123 C-72.21356289 110.62089741 -75.66103122 98.81611349 -78.9375 87 C-79.29835693 85.67391724 -79.29835693 85.67391724 -79.66650391 84.32104492 C-81.17971541 79.03384176 -83.06962723 74.65821676 -86 70 C-86.33 70 -86.66 70 -87 70 Z M-204 75 C-202.68370173 85.33369795 -196.51238711 94.00619185 -189 101 C-184.43713044 104.63019928 -184.43713044 104.63019928 -179 106 C-180.51436883 100.29831014 -183.3846489 95.90694551 -186.625 91.0625 C-187.12128906 90.28970703 -187.61757812 89.51691406 -188.12890625 88.72070312 C-191.67352087 83.38574244 -195.62122973 78.58608751 -201 75 C-201.99 75 -202.98 75 -204 75 Z M-173 75 C-177.59708224 82.87020479 -174.93654311 92.77326935 -172.78369141 101.11035156 C-171.13913256 107.0273283 -168.82079525 112.54337968 -166 118 C-163.20331088 113.98924428 -163.84537536 109.77639546 -164.125 105.125 C-164.19678467 103.86103394 -164.19678467 103.86103394 -164.27001953 102.5715332 C-164.97228746 92.69390066 -167.39001422 83.81165854 -172 75 C-172.33 75 -172.66 75 -173 75 Z M-19 77 C-16.09361794 78.93758804 -14.07965696 79.67428145 -10.75 80.5625 C-9.83734375 80.81128906 -8.9246875 81.06007813 -7.984375 81.31640625 C-1.71866304 82.75161514 4.35276222 83.18191777 10.75 83.1875 C11.50410156 83.19974609 12.25820313 83.21199219 13.03515625 83.22460938 C16.89173682 83.23488446 18.71703384 83.18864411 22 81 C18.89520688 77.4175464 16.59981964 76.11780563 12 75 C7.8304237 74.71169805 3.67797678 74.72101981 -0.5 74.75 C-1.61503906 74.74226563 -2.73007812 74.73453125 -3.87890625 74.7265625 C-9.28198276 74.7394423 -13.96883697 74.76786429 -19 77 Z M-150 86 C-151.85776765 89.13498292 -152.20140476 91.37471432 -152 95 C-149.53721199 92.53721199 -149.00228745 90.29323018 -148 87 C-148.66 86.67 -149.32 86.34 -150 86 Z M-37 90 C-24.97886019 98.01409321 -6.96043542 100.12955795 7 98 C7.66 97.67 8.32 97.34 9 97 C9 96.01 9 95.02 9 94 C-4.66480142 86.92358498 -22.53152001 83.86185697 -37 90 Z M-148 94 C-153.76663341 108.05506676 -156.27704622 118.75949054 -153 134 C-152.67 134.66 -152.34 135.32 -152 136 C-151.34 136 -150.68 136 -150 136 C-149.34996375 133.79290017 -148.70515255 131.58426108 -148.0625 129.375 C-147.70285156 128.14523438 -147.34320313 126.91546875 -146.97265625 125.6484375 C-145.42636798 119.84830398 -144.86270896 114.56667233 -144.875 108.5625 C-144.87242187 107.30566406 -144.86984375 106.04882812 -144.8671875 104.75390625 C-144.99756866 101.06872098 -145.40937267 97.63282683 -146 94 C-146.66 94 -147.32 94 -148 94 Z M-43.296875 95.25 C-46.38791618 98.97254421 -49.36769597 102.74927511 -52.23828125 106.64453125 C-54.0022427 109.00299855 -55.81390801 111.32074406 -57.63061523 113.63867188 C-62.49480142 119.86861031 -66.86268433 126.25843575 -71 133 C-72.16345058 134.83537597 -73.33014611 136.66869879 -74.5 138.5 C-75.07105469 139.40105469 -75.64210938 140.30210937 -76.23046875 141.23046875 C-77.44891522 143.13748541 -78.6815631 145.03547822 -79.92578125 146.92578125 C-80.54839844 147.87839844 -81.17101562 148.83101562 -81.8125 149.8125 C-82.37582031 150.66457031 -82.93914062 151.51664063 -83.51953125 152.39453125 C-85.10839591 155.19076535 -86.07979435 157.9251665 -87 161 C-85.9790625 160.36384766 -85.9790625 160.36384766 -84.9375 159.71484375 C-78.22726271 155.65479326 -71.49669234 152.30952959 -64.2578125 149.31030273 C-60.30640063 147.6651732 -60.30640063 147.6651732 -57 145 C-56.65716206 143.11585646 -56.40052684 141.21569581 -56.1875 139.3125 C-54.84450877 129.71970548 -52.23596346 115.24712826 -44.4765625 108.953125 C-43.53554688 108.39109375 -42.59453125 107.8290625 -41.625 107.25 C-40.68914062 106.67765625 -39.75328125 106.1053125 -38.7890625 105.515625 C-34.21799893 103.03162967 -30.15447236 101.7192287 -25 101 C-26.66666667 106 -28.33333333 111 -30 116 C-29.01 115.34 -28.02 114.68 -27 114 C-27 113.34 -27 112.68 -27 112 C-26.41347656 111.73058594 -25.82695312 111.46117187 -25.22265625 111.18359375 C-23.00290721 110.00154813 -21.32160632 108.71899616 -19.4375 107.0625 C-18.85871094 106.55847656 -18.27992188 106.05445313 -17.68359375 105.53515625 C-16.07315441 104.0667046 -14.53565994 102.54587438 -13 101 C-16.80778697 99.99999049 -20.61638973 99.00315764 -24.42578125 98.00927734 C-26.35981689 97.50396693 -28.29319287 96.99613392 -30.2265625 96.48828125 C-31.43828125 96.17246094 -32.65 95.85664063 -33.8984375 95.53125 C-35.01911621 95.23798828 -36.13979492 94.94472656 -37.29443359 94.64257812 C-40.62315019 93.64017034 -40.62315019 93.64017034 -43.296875 95.25 Z M-103 104 C-101.6189294 117.6440251 -95.06989856 130.50813187 -85 140 C-84.46923064 127.83913741 -89.99259544 114.83033669 -97.99609375 105.73046875 C-99.93714957 103.67320927 -99.93714957 103.67320927 -103 104 Z M-35.5234375 106.15234375 C-45.81451257 112.59483869 -48.82660556 118.48306579 -52.30078125 129.94921875 C-52.94616855 132.76512645 -53.14390182 135.12729332 -53 138 C-43.33233354 128.64142412 -36.32238438 117.77941447 -30 106 C-32.95920049 104.63486038 -32.95920049 104.63486038 -35.5234375 106.15234375 Z M-21.375 111.875 C-28.1030825 119.04451778 -34.21035633 127.51521153 -37 137 C-34.10436118 135.67667525 -31.91230964 134.21330496 -29.57421875 132.05859375 C-28.6308667 131.18944336 -28.6308667 131.18944336 -27.66845703 130.30273438 C-27.01474121 129.68720703 -26.36102539 129.07167969 -25.6875 128.4375 C-25.01831543 127.80779297 -24.34913086 127.17808594 -23.65966797 126.52929688 C-13.93725057 117.84801759 -13.93725057 117.84801759 -10 106 C-14.25429296 106 -18.42448757 109.09683058 -21.375 111.875 Z M-213 112 C-210.12963969 113.43518016 -207.76478074 112.90166884 -204.5625 112.75 C-197.05791088 112.5402965 -190.41642859 114.16243416 -183.26000977 116.30957031 C-182.48842529 116.53870117 -181.71684082 116.76783203 -180.921875 117.00390625 C-180.23706055 117.21861572 -179.55224609 117.4333252 -178.84667969 117.65454102 C-176.77899143 118.19593049 -176.77899143 118.19593049 -174 117 C-181.89286212 110.09374565 -191.75697394 108.34843671 -202.03125 108.66015625 C-206.11617622 109.1277728 -209.28910467 110.25369631 -213 112 Z M9 109 C9 109.66 9 110.32 9 111 C9.66 111 10.32 111 11 111 C11 112.65 11 114.3 11 116 C11.66 115.34 12.32 114.68 13 114 C13 112.68 13 111.36 13 110 C11.68 109.67 10.36 109.34 9 109 Z M-213 117 C-207.89401981 122.71869781 -201.18262532 124.59697382 -193.67578125 125.3203125 C-186.91192524 125.43237639 -180.55282529 124.65669624 -174 123 C-174 122.34 -174 121.68 -174 121 C-178.35045404 119.8191817 -182.70589191 118.65788763 -187.0625 117.5 C-188.29162109 117.16613281 -189.52074219 116.83226562 -190.78710938 116.48828125 C-191.98271484 116.17246094 -193.17832031 115.85664063 -194.41015625 115.53125 C-195.50465088 115.23798828 -196.59914551 114.94472656 -197.72680664 114.64257812 C-203.73691661 113.46270124 -207.95439884 113.33047188 -213 117 Z M-133 114 C-137.57495793 124.31984785 -140.14121295 132.68564343 -140.25 143.9375 C-140.25942627 144.69635498 -140.26885254 145.45520996 -140.27856445 146.23706055 C-140.40906275 150.58514227 -140.40906275 150.58514227 -138 154 C-132.65309437 141.75517795 -127.68664186 128.55464693 -131 115 C-131.66 114.67 -132.32 114.34 -133 114 Z M-17 129 C-19.9964778 133.12556543 -19.9964778 133.12556543 -21 138 C-10.41164769 135.13828316 0.08853068 128.7752042 6.5 119.75 C8.23942607 117.08313405 8.23942607 117.08313405 8 114 C-2.64378979 112.63541157 -10.61906199 121.64531023 -17 129 Z M-115 128 C-124.03457699 137.34611413 -130.07366705 154.67136987 -130.625 167.375 C-130.66367188 168.11105469 -130.70234375 168.84710938 -130.7421875 169.60546875 C-130.83557998 171.40327406 -130.9188371 173.20160108 -131 175 C-125.00984906 172.55766378 -122.6676404 166.83870037 -120.19287109 161.14208984 C-113.60551195 145.07151905 -113.60551195 145.07151905 -112 128 C-112.99 128 -113.98 128 -115 128 Z M-39 128 C-40.30310168 129.53569191 -41.56705026 131.10469282 -42.8125 132.6875 C-43.49957031 133.55761719 -44.18664062 134.42773438 -44.89453125 135.32421875 C-45.58933594 136.20722656 -46.28414062 137.09023437 -47 138 C-48.33193018 139.66778822 -49.66483798 141.33479793 -51 143 C-48.69 143 -46.38 143 -44 143 C-41.36634013 138.0778687 -39.35524176 133.42096702 -38 128 C-38.33 128 -38.66 128 -39 128 Z M-24 130 C-25.60509934 131.43645851 -27.20904424 132.87420706 -28.8125 134.3125 C-29.70582031 135.11300781 -30.59914063 135.91351563 -31.51953125 136.73828125 C-33.39926786 138.45224581 -35.22592747 140.17877604 -37 142 C-32.87155526 142.07267062 -32.87155526 142.07267062 -29 141 C-26.52237817 138.25284609 -24.73669461 135.2563024 -23 132 C-23.33 131.34 -23.66 130.68 -24 130 Z M-201 145 C-201 146.32 -201 147.64 -201 149 C-192.25941288 153.37029356 -176.6848588 148.70749037 -167.72265625 146.015625 C-164.24629473 144.74003567 -164.24629473 144.74003567 -161 143 C-160.67 142.01 -160.34 141.02 -160 140 C-174.45914888 139.30111525 -187.08553619 141.03408248 -201 145 Z M-7 143 C-7 143.66 -7 144.32 -7 145 C6.6179671 151.22671445 18.26368869 152.31096554 33 152 C33 151.01 33 150.02 33 149 C20.57709259 141.61591672 7.21315762 137.56492303 -7 143 Z M29 142 C31.88035092 144.24027294 34.84866512 146.16172132 38 148 C37.67 149.65 37.34 151.3 37 153 C35.02 153.33 33.04 153.66 31 154 C31 154.66 31 155.32 31 156 C36.98993047 156.3152595 40.63560356 155.68219822 46 153 C42.11132284 147.75617777 38.26219717 144.14970948 32 142 C31.01 142 30.02 142 29 142 Z M-28 146 C-27.32789522 151.1911251 -25.49580102 152.87956655 -21.5703125 156.1015625 C-13.62448104 161.97036811 -5.35611215 166.78977642 4 170 C4.35121205 166.79791572 4.35121205 166.79791572 1.6484375 164.6171875 C0.56729464 163.69131516 -0.52469458 162.77801576 -1.625 161.875 C-2.20314453 161.39434082 -2.78128906 160.91368164 -3.37695312 160.41845703 C-7.58968543 156.98741056 -11.94912275 153.84105528 -16.5 150.875 C-17.07443848 150.49714355 -17.64887695 150.11928711 -18.24072266 149.72998047 C-21.46000721 147.69987754 -24.21295397 146.46631537 -28 146 Z M-65 153 C-62.51596528 155.79453906 -59.77067154 157.40709412 -56.5 159.1875 C-55.06140625 159.98220703 -55.06140625 159.98220703 -53.59375 160.79296875 C-51.02349031 162.21095674 -51.02349031 162.21095674 -48 162 C-48.763125 161.13375 -49.52625 160.2675 -50.3125 159.375 C-52.75220073 156.46399345 -54.42998277 153.47056439 -56 150 C-59.30355546 150 -62.02108249 151.67603666 -65 153 Z M-50 151 C-47.33478312 161.66086751 -39.64291669 167.40464672 -30.74755859 172.96142578 C-26.31161008 175.59771035 -21.68549629 177.84720441 -17 180 C-21.20911033 168.60363523 -30.49017552 161.88833172 -40 155 C-41.05058594 154.23300781 -42.10117187 153.46601563 -43.18359375 152.67578125 C-46.0267113 150.65910855 -46.0267113 150.65910855 -50 151 Z M-67 158 C-68.25403119 159.96655343 -68.25403119 159.96655343 -67.46875 162.13671875 C-67.1490625 162.97847656 -66.829375 163.82023438 -66.5 164.6875 C-66.2009375 165.51636719 -65.901875 166.34523437 -65.59375 167.19921875 C-61.47209504 174.44242121 -54.83917274 178.72735146 -47.8125 182.875 C-47.01908203 183.3596875 -46.22566406 183.844375 -45.40820312 184.34375 C-41.94671508 186.42471175 -38.98857008 188.17962809 -35 189 C-38.72667801 178.49754378 -44.45856217 172.07787685 -53 165 C-53.7528125 164.36320313 -54.505625 163.72640625 -55.28125 163.0703125 C-59.1082101 159.99402534 -61.92744821 158.25362759 -67 158 Z M-192 164 C-192 164.66 -192 165.32 -192 166 C-189.31466436 166.67662 -186.627275 167.34146121 -183.9375 168 C-183.18533203 168.19078125 -182.43316406 168.3815625 -181.65820312 168.578125 C-174.02167908 170.42940356 -167.96693541 170.37405717 -160.5 167.6875 C-159.2521875 167.25824219 -158.004375 166.82898438 -156.71875 166.38671875 C-153.08434612 165.0314526 -149.54985867 163.55992501 -146 162 C-148.65205318 159.34794682 -149.90966836 159.74246558 -153.609375 159.734375 C-154.75083984 159.73034668 -155.89230469 159.72631836 -157.06835938 159.72216797 C-158.28330078 159.73135254 -159.49824219 159.74053711 -160.75 159.75 C-161.97525391 159.75531738 -163.20050781 159.76063477 -164.46289062 159.76611328 C-178.8492564 159.39545029 -178.8492564 159.39545029 -192 164 Z M-109 164 C-117.67921551 175.49941399 -123.52510175 187.50135737 -123 202 C-116.71283351 199.44928553 -113.35335499 193.03897078 -110.6953125 187.0703125 C-108.40927123 180.91301887 -106.84946364 175.29022717 -106.9375 168.6875 C-106.94652344 167.80449219 -106.95554687 166.92148438 -106.96484375 166.01171875 C-106.97644531 165.34785156 -106.98804688 164.68398437 -107 164 C-107.66 164 -108.32 164 -109 164 Z M-9 168 C-5.49694969 172.26458299 -1.12642543 174.24862334 4 176 C6.87911042 176.34202694 6.87911042 176.34202694 9 176 C7.56231082 173.12462164 5.8082916 173.03498333 2.8125 172 C1.8225 171.65453125 0.8325 171.3090625 -0.1875 170.953125 C-1.5796875 170.48132813 -1.5796875 170.48132813 -3 170 C-4.216875 169.5875 -5.43375 169.175 -6.6875 168.75 C-7.8321875 168.37875 -7.8321875 168.37875 -9 168 Z M-187 183 C-182.92095704 187.69830361 -176.63688073 189.38881039 -170.65234375 190.39453125 C-160.06274252 190.88495875 -148.54141544 187.36429094 -139 183 C-139.495 182.01 -139.495 182.01 -140 181 C-144.29288149 179.71964006 -148.70917577 179.82229534 -153.15234375 179.796875 C-153.93009659 179.79117493 -154.70784943 179.78547485 -155.50917053 179.77960205 C-157.14892225 179.77018664 -158.7886926 179.76363188 -160.4284668 179.75976562 C-162.92595539 179.75004493 -165.42262553 179.71898369 -167.91992188 179.6875 C-169.51822431 179.68097031 -171.1165326 179.6757197 -172.71484375 179.671875 C-173.45564682 179.6595282 -174.19644989 179.6471814 -174.95970154 179.63446045 C-179.7207011 179.65475175 -182.91760019 180.56670179 -187 183 Z M-103.625 199.5625 C-104.42798427 200.70043075 -105.2245504 201.84313006 -106 203 C-105.67 203.66 -105.34 204.32 -105 205 C-85.14196543 197.05922012 -85.14196543 197.05922012 -71 182 C-71 181.34 -71 180.68 -71 180 C-84.24332543 178.19409199 -96.23017287 189.80063709 -103.625 199.5625 Z M-175.77685547 201.48608398 C-176.18049316 201.98567627 -176.58413086 202.48526855 -177 203 C-168.69027298 210.58714206 -155.91267199 210.16990485 -145.375 210.125 C-144.45976562 210.12886719 -143.54453125 210.13273438 -142.6015625 210.13671875 C-137.95394997 210.13000255 -133.57117336 209.95675721 -129 209 C-131.71330388 205.26920717 -135.73161625 204.84653728 -140 204 C-143.94837956 203.38952735 -147.90749914 202.90557594 -151.875 202.4375 C-153.41220703 202.24897461 -153.41220703 202.24897461 -154.98046875 202.05664062 C-157.00780868 201.81062924 -159.03614178 201.5726509 -161.06542969 201.34326172 C-163.00686254 201.11616899 -164.9454336 200.86294579 -166.87988281 200.58251953 C-167.76772461 200.46376465 -168.65556641 200.34500977 -169.5703125 200.22265625 C-170.35422363 200.10801025 -171.13813477 199.99336426 -171.94580078 199.87524414 C-174.12224862 199.80335285 -174.12224862 199.80335285 -175.77685547 201.48608398 Z M-107 221 C-108.04501066 222.63881985 -109.05757582 224.3001134 -110 226 C-94.00651439 225.22612166 -80.29911786 213.5973093 -69 203 C-69.495 202.01 -69.495 202.01 -70 201 C-83.59000909 199.56947273 -98.26563887 211.70931014 -107 221 Z M-80 215 C-80.66 215.66 -81.32 216.32 -82 217 C-81.01 217 -80.02 217 -79 217 C-79.33 216.34 -79.66 215.68 -80 215 Z M-166 221 C-159.90373115 227.85830246 -151.97954767 231.50728125 -142.76245117 232.15795898 C-140.50481589 232.19523299 -138.25730311 232.17585778 -136 232.125 C-135.22527344 232.11597656 -134.45054687 232.10695313 -133.65234375 232.09765625 C-131.76809157 232.07439388 -129.88400168 232.0385364 -128 232 C-131.7091387 228.68650276 -135.91887609 227.43989116 -140.5625 225.9375 C-141.36518311 225.67437012 -142.16786621 225.41124023 -142.99487305 225.14013672 C-150.59404966 222.70772751 -157.97906738 220.85803659 -166 221 Z M-210 222 C-210 233.32094088 -203.5824935 245.25524923 -195.80859375 253.31640625 C-192.60793793 256.29585043 -189.3631153 259.20468338 -186 262 C-183.9046013 255.7138039 -187.98981826 248.71230424 -190.6875 243 C-194.93976337 234.80146741 -200.43815508 227.4013178 -208 222 C-208.66 222 -209.32 222 -210 222 Z M-171 222 C-170.63636011 224.70383855 -170.22193011 225.79664344 -168.1796875 227.66796875 C-163.35776586 230.84716793 -159.80789978 232.75285533 -154 233 C-157.3054262 230.46290531 -160.72411595 228.12845352 -164.1875 225.8125 C-165.25355469 225.09707031 -166.31960937 224.38164062 -167.41796875 223.64453125 C-169.6303637 221.91046571 -169.6303637 221.91046571 -171 222 Z M-248 226 C-245.52349458 234.80535261 -237.33414582 240.67908939 -230.1875 245.6875 C-229.39794922 246.24840332 -228.60839844 246.80930664 -227.79492188 247.38720703 C-219.86277401 253.07346288 -219.86277401 253.07346288 -211 257 C-210.34 256.67 -209.68 256.34 -209 256 C-214.34697285 247.80335108 -220.13989771 241.80202537 -228 236 C-228.88429688 235.33742188 -229.76859375 234.67484375 -230.6796875 233.9921875 C-238.60169938 228.08962473 -238.60169938 228.08962473 -248 226 Z M-112.48828125 248.1875 C-114.21350331 249.86261996 -114.21350331 249.86261996 -114 252 C-99.64781714 249.28472216 -86.68378533 242.73944738 -77.49609375 231.09375 C-76.27731897 229.34156557 -76.27731897 229.34156557 -75 227 C-90.04972487 225.37300272 -102.74334374 238.39007629 -112.48828125 248.1875 Z M-182 233 C-183.11279594 245.24075537 -176.16167271 258.47333152 -168.76953125 267.8203125 C-166.89513192 269.93689086 -164.99365598 271.99598736 -163 274 C-160.57367031 269.14734063 -164.41316184 260.04271554 -166 255 C-168.98637929 247.16400851 -172.9729522 239.89006944 -179 234 C-179.99 233.67 -180.98 233.34 -182 233 Z M-154 233 C-150 234 -150 234 -150 234 Z M-149 234 C-149 234.33 -149 234.66 -149 235 C-146.77253461 235.36471355 -144.54292708 235.71635972 -142.3125 236.0625 C-141.07113281 236.25972656 -139.82976562 236.45695313 -138.55078125 236.66015625 C-135.33929143 236.96752656 -133.08216081 236.84273231 -130 236 C-133.74235319 233.55010899 -137.44225419 233.76913857 -141.75 233.875 C-142.79607422 233.88853516 -142.79607422 233.88853516 -143.86328125 233.90234375 C-145.57566958 233.92580112 -147.28788004 233.96166896 -149 234 Z M-154 246 C-155.4129707 247.20232459 -155.4129707 247.20232459 -155.375 250.6875 C-155.24687635 262.16371838 -148.83637265 275.64120251 -141 284 C-140.01 284.33 -139.02 284.66 -138 285 C-136.93704068 271.97874837 -142.01278998 258.84974077 -150.25 248.9375 C-151.13598725 247.93048872 -152.04403551 246.94083847 -153 246 C-153.33 246 -153.66 246 -154 246 Z M-278 247 C-276.96108314 250.40703617 -275.7544722 251.15202072 -272.65625 253.0703125 C-271.27940177 253.77227445 -269.89335139 254.45639433 -268.5 255.125 C-267.40534424 255.65383789 -267.40534424 255.65383789 -266.28857422 256.19335938 C-257.66951654 260.23634896 -250.13157193 261.14691356 -240.6875 261.3125 C-239.52081787 261.33957031 -239.52081787 261.33957031 -238.33056641 261.3671875 C-233.70154093 261.35917361 -230.82404038 260.89283694 -227 258 C-241.22193981 248.51870679 -261.36539654 246.36562953 -278 247 Z M-113.6875 269.3125 C-117.06170119 272.71127392 -117.06170119 272.71127392 -119 277 C-105.03789411 275.33130656 -91.86800576 265.12981364 -82.14453125 255.54296875 C-80.70211884 253.91860637 -80.70211884 253.91860637 -81 251 C-93.02849417 251 -105.5395711 261.36160495 -113.6875 269.3125 Z M-85.1875 272.875 C-85.76943115 273.36838867 -86.3513623 273.86177734 -86.95092773 274.37011719 C-90.52644338 277.48757232 -93.66659824 280.78474232 -96.68286133 284.44604492 C-98 286 -98 286 -100.5 288.4375 C-103.69329435 291.71062671 -106.32698655 295.29819787 -109 299 C-97.12868765 294.68746737 -85.27828821 287.50509752 -76 279 C-75.26265625 278.33097656 -74.5253125 277.66195313 -73.765625 276.97265625 C-69.57686922 272.99028078 -66.50520433 269.21917569 -64 264 C-64 263.34 -64 262.68 -64 262 C-72.75357067 261.57521667 -78.84699014 267.48686265 -85.1875 272.875 Z M-213.125 265.4375 C-214.43812499 266.60122754 -215.72993263 267.78942662 -217 269 C-218.26732295 270.06668465 -219.53798847 271.12941495 -220.8125 272.1875 C-222.96644007 274.04469773 -225.00691355 275.97100208 -227 278 C-222.96634675 276.70325518 -219.07944241 275.23494112 -215.1875 273.5625 C-210.18437654 271.45131931 -205.17559185 269.63893742 -200 268 C-200 267.34 -200 266.68 -200 266 C-204.91176597 263.47589804 -208.42706481 261.87259624 -213.125 265.4375 Z M-220 264 C-229.1727989 265.34517302 -237.85895009 267.38819241 -246.625 270.4375 C-247.46514648 270.72568604 -248.30529297 271.01387207 -249.17089844 271.31079102 C-253.95355087 273.02814562 -257.90527284 274.98527369 -262 278 C-259.4175803 280.69469882 -257.89267778 281.01038602 -254.125 281.375 C-239.98698716 280.83840875 -229.29790047 276.42148341 -219 267 C-219.495 265.515 -219.495 265.515 -220 264 Z M-207.9375 273 C-208.78344727 273.31179199 -209.62939453 273.62358398 -210.50097656 273.94482422 C-217.96212463 276.80044768 -224.42412637 280.43792802 -231 285 C-232.16208984 285.80050781 -232.16208984 285.80050781 -233.34765625 286.6171875 C-234.91566199 287.72071441 -236.46179993 288.85529297 -238 290 C-237.67 290.99 -237.34 291.98 -237 293 C-225.3185447 293.9303814 -215.49891129 290.44700418 -206.5625 282.95703125 C-201.97902325 278.97979925 -197.99193495 275.30388469 -195 270 C-199.8665072 270 -203.41580024 271.33341039 -207.9375 273 Z M-192.69921875 272.625 C-193.70367458 273.74254026 -194.69947129 274.86791033 -195.6875 276 C-196.45416992 276.85851562 -196.45416992 276.85851562 -197.23632812 277.734375 C-198.4983014 279.14967213 -199.75013033 280.57400269 -201 282 C-200.01 282.495 -200.01 282.495 -199 283 C-196.63616414 282.09992208 -196.63616414 282.09992208 -194 280.75 C-188.77614126 278.27263503 -183.57837033 276.48837213 -178 275 C-178 274.34 -178 273.68 -178 273 C-179.43554025 272.49440092 -180.8735202 271.9957251 -182.3125 271.5 C-183.11300781 271.2215625 -183.91351563 270.943125 -184.73828125 270.65625 C-188.78212794 269.48290588 -189.58705719 269.59841162 -192.69921875 272.625 Z M-168 278 C-169.53237551 279.55383147 -169.53237551 279.55383147 -171.125 281.5625 C-174.73659577 285.82798469 -178.70858022 289.43310564 -183 293 C-180.22229487 294.38885256 -178.61755964 293.39094071 -175.79296875 292.46166992 C-175.09816406 292.22681885 -174.40335938 291.99196777 -173.6875 291.75 C-166.5233016 289.40942382 -159.38000996 287.55435141 -152 286 C-152 285.34 -152 284.68 -152 284 C-154.2898234 282.9955866 -156.5816599 281.99632388 -158.875 281 C-159.52597656 280.71382813 -160.17695313 280.42765625 -160.84765625 280.1328125 C-164.29638339 278.54074235 -164.29638339 278.54074235 -168 278 Z M-213 295 C-214.43474795 297.15420055 -214.43474795 297.15420055 -215 299 C-213.23306101 301.19219087 -213.23306101 301.19219087 -211.00390625 301.1875 C-198.10349074 300.19674809 -187.27745045 291.52931883 -178 283 C-176.61891049 281.37268708 -175.26515454 279.71899376 -174 278 C-188.263795 278 -202.5008272 285.92630236 -213 295 Z M-185.7578125 300.21582031 C-192.789973 304.80277504 -192.789973 304.80277504 -198 311 C-191.67408537 311.43328182 -186.58597998 309.90173319 -180.625 307.875 C-179.73039062 307.59140625 -178.83578125 307.3078125 -177.9140625 307.015625 C-169.38219506 304.16340187 -162.54776265 299.71063863 -155.9375 293.625 C-155.18339844 292.93664062 -154.42929688 292.24828125 -153.65234375 291.5390625 C-153.10707031 291.03117187 -152.56179687 290.52328125 -152 290 C-161.67480497 286.22386439 -178.10273829 294.92106065 -185.7578125 300.21582031 Z M-174.7421875 316.51953125 C-176.21582443 317.93025477 -176.21582443 317.93025477 -176 320 C-158.99149295 321.68216004 -143.54172354 311.39725959 -130 302 C-130 301.67 -130 301.34 -130 301 C-146.57816917 299.96863925 -162.45535728 305.28659232 -174.7421875 316.51953125 Z M-218 302 C-217.67 302.66 -217.34 303.32 -217 304 C-215.02 304 -213.04 304 -211 304 C-211 303.67 -211 303.34 -211 303 C-213.31 302.67 -215.62 302.34 -218 302 Z M-135 320 C-136.72863281 320.87398438 -136.72863281 320.87398438 -138.4921875 321.765625 C-145.57027665 325.50081392 -151.27623742 329.40612613 -156 336 C-157 337.33333333 -158 338.66666667 -159 340 C-153.19082938 339.4748406 -148.36633556 338.32154187 -143 336.0625 C-142.27522461 335.76037598 -141.55044922 335.45825195 -140.80371094 335.14697266 C-135.36510108 332.78773147 -130.28115263 330.00480402 -125.25 326.875 C-124.59515625 326.46773682 -123.9403125 326.06047363 -123.265625 325.64086914 C-119.35766953 323.11647238 -116.17304859 320.40315517 -113 317 C-114.67198326 315.32801674 -116.64167608 315.74867904 -118.9375 315.6875 C-125.09093195 315.77450225 -129.55097056 317.23667453 -135 320 Z " fill="#396035" transform="translate(367,60)"/>
</svg>
